<?xml version="1.0" encoding="utf-8"?>
<!-- Generator: Adobe Illustrator 20.0.0, SVG Export Plug-In . SVG Version: 6.00 Build 0)  -->
<svg version="1.1" id="Layer_1" xmlns="http://www.w3.org/2000/svg" xmlns:xlink="http://www.w3.org/1999/xlink" x="0px" y="0px"
	 viewBox="0 0 707.9 617.8" style="enable-background:new 0 0 707.9 617.8;" xml:space="preserve">
<style type="text/css">
	.st0{fill:#010101;}
</style>
<path class="st0" d="M707.9,180.8v56.6c-0.6,1.3-1,2.6-1.3,3.9c-2.8,22.6-9.3,44.6-19.1,65.1c-21.6,44.7-50.6,85.5-85.8,120.7
	C530,501.7,447.5,562.2,359.6,616c-3.1,2.4-7.4,2.4-10.5,0c-70.6-42.2-137-91.1-198.2-146C107,431.4,68.8,386.6,37.4,337.2
	C2.6,282.3-8.5,215.7,6.6,152.5C38.8,9.6,216.7-48.8,327.6,47c9.5,8.1,17.8,17.6,27.3,27c0.6-1,1.2-1.9,1.9-2.8
	C406.4,15.7,467.6-9.1,540.9,3.2c80.3,13.4,133,61.4,158.6,138.7C703,154.7,705.8,167.7,707.9,180.8z"/>
</svg>
