<?xml version="1.0" encoding="utf-8"?>
<!-- Generator: Adobe Illustrator 20.0.0, SVG Export Plug-In . SVG Version: 6.00 Build 0)  -->
<svg version="1.1" id="Layer_1" xmlns="http://www.w3.org/2000/svg" xmlns:xlink="http://www.w3.org/1999/xlink" x="0px" y="0px"
	 viewBox="0 0 280 60" style="enable-background:new 0 0 280 60;" xml:space="preserve">
<title>ProPublica Data Store</title>
<path d="M19.2,21.4c-2.8,0-3.7,0.4-3.7,1.6v14c1.3,0.3,2.7,0.4,4,0.4c8.1,0,8.2-6.5,8.2-8.3C27.8,21.7,21.2,21.4,19.2,21.4z"/>
<path d="M16.4,7.9c-5.8,0-11.6,1.7-16.4,5V60h35.6C48,49.4,49.5,30.7,38.9,18.3C33.3,11.7,25.1,7.9,16.4,7.9z M21.1,39.3
	c-1.4,0-2.8-0.1-5.5-0.3v8.6c0,3.3,1.2,3.6,3.1,3.6H21V53c-2.6-0.1-5.2-0.3-7.9-0.3c-2.3,0-4.7,0.1-7,0.3v-1.8h1.1
	c1.8,0,3.1-0.2,3.1-3.5V24.4c0-3.2-1.4-3.5-3.2-3.5c-0.3,0-0.5,0-0.8,0v-1.7c1.9,0.1,3.2,0.3,5.1,0.3h3c1.8,0,3.4-0.1,5.7-0.1
	c5.4,0,8.6,0.8,10.8,3.8c1.2,1.6,1.8,3.6,1.8,5.7C32.8,33.4,30.5,39.3,21.1,39.3L21.1,39.3z M56.3,13L60,11V9.4l-4.3,2.3L56.3,13z"
	/>
<path d="M59.6,21.2c-0.7,0.4-1.7,0.1-2.1-0.6c0,0,0,0,0,0l-4.4-8.2c-0.4-0.7-0.1-1.7,0.6-2.1L60,7V0H0v8.5C15.2,0,34.4,4.5,44.1,19
	c1.5-0.1,3-0.5,4.3-1.2c1.7-0.8,3.1-2.2,4-3.9l3.6,6.6c-1.9-0.2-3.8,0.2-5.5,1.1c-1.3,0.7-2.5,1.7-3.4,2.9c5.1,12,2.7,25.9-6.1,35.5
	h19V21L59.6,21.2z M78.7,16.5v3.7c0,1.5,0.8,1.8,3.2,1.9V24h-11v-1.9c1.9-0.1,2.2-0.4,2.2-1.9v-12c0-1.5-0.3-1.8-2.2-1.9V4.3h10
	c5.4,0,7.9,2.7,7.9,6c0,3.9-2.5,6.1-7.9,6.1L78.7,16.5z M78.7,14.6h0.8c2.4,0,3.8-1.5,3.8-4.3c0.2-2-1.4-3.8-3.4-4
	c-0.2,0-0.4,0-0.6,0h-0.6L78.7,14.6z M97.1,13.1c1.1-3.8,2.3-4.8,4.3-4.8c0.4,0,0.9,0.1,1.3,0.3v4.4h-0.7c-1.8,0-3.6,0.1-4.8,1v6.5
	c0,1.2,0.6,1.3,2.2,1.5V24h-9.2v-1.9c1.3-0.2,1.7-0.3,1.7-1.6v-8.1l-1.6-1.6v-1l5.9-1.5h1L97.1,13.1z M103.6,16.5
	c-0.2-4.3,3.1-8,7.4-8.2c0.3,0,0.5,0,0.8,0c4.1-0.2,7.6,3,7.8,7.1c0,0.2,0,0.4,0,0.6c0.2,4.3-3.1,8-7.4,8.3c-0.3,0-0.5,0-0.8,0
	c-4.1,0.2-7.6-3-7.8-7.1C103.6,17,103.6,16.8,103.6,16.5z M114.2,17.1c0-3.9-1-6.9-2.9-6.9c-1.5,0-2.3,2.2-2.3,5.2
	c0,3.9,1,6.8,2.9,6.8C113.4,22.3,114.2,20.1,114.2,17.1z M128.6,16.5v3.7c0,1.5,0.8,1.8,3.2,1.9V24h-11v-1.9
	c1.9-0.1,2.2-0.4,2.2-1.9v-12c0-1.5-0.3-1.8-2.2-1.9V4.3h10c5.4,0,7.9,2.7,7.9,6c0,3.9-2.5,6.1-7.9,6.1L128.6,16.5z M128.6,14.6h0.8
	c2.4,0,3.8-1.5,3.8-4.3c0.2-2-1.4-3.8-3.4-4c-0.2,0-0.4,0-0.6,0h-0.6L128.6,14.6z M150.8,21.5c-1.2,1.7-3.2,2.7-5.3,2.7
	c-2.5,0-4.2-1.5-4.2-4.8v-6.5c0-0.8-0.2-1.5-1.1-1.6l-0.4-0.1V9.7l5.8-1.3h1V19c0,1.4,0.6,2.1,1.7,2.1c0.8,0,1.7-0.2,2.4-0.5v-7.6
	c0-0.8-0.2-1.5-1.1-1.6l-0.4-0.1V9.7l5.6-1.3h1v11.6c0,1,0.2,1.5,1,1.5h0.7v1.9l-5.9,0.9h-1.1L150.8,21.5z M158.3,4.8v-1l5.9-1.1h1
	V11c0.8-1.7,2.6-2.8,4.4-2.7c3.6,0,5.9,2.6,5.9,7.2c0,5.5-3.7,8.8-8.5,8.8c-2.6,0-5.4-0.5-7.2-1.9V6.5L158.3,4.8z M170.1,17
	c0-3.5-1.4-5.4-3.4-5.4c-0.6,0-1.1,0.1-1.6,0.4v7.7c0,1.7,0.4,2.7,2,2.7C169.1,22.3,170.1,20.1,170.1,17z M183.4,20.5
	c0,1.3,0.4,1.4,1.7,1.6V24h-8.6v-1.9c1.3-0.2,1.7-0.3,1.7-1.6V6.5l-1.5-1.7v-1l5.9-1.1h0.9V20.5z M194.2,20.5c0,1.3,0.4,1.4,1.7,1.6
	V24h-8.7v-1.9c1.3-0.2,1.7-0.3,1.7-1.6v-8.2l-1.6-1.7V9.7l5.9-1.4h0.9L194.2,20.5z M188.7,4.7c-0.1-1.6,1.1-3,2.7-3.1s3,1.1,3.1,2.7
	c0.1,1.6-1.1,3-2.7,3.1c-0.1,0-0.1,0-0.2,0c-1.5,0.1-2.8-1-2.9-2.5C188.7,4.9,188.7,4.8,188.7,4.7z M205.9,20.3c1.5,0,3-0.8,3.8-2
	l1,0.6c-1,3.7-3.3,5.3-6.7,5.3c-4.1,0-7-2.9-7-7.4c0-4.9,3.2-8.6,8-8.6c2.9,0,5.5,1.4,5.5,4.1c0.1,0.9-0.4,1.8-1.2,2.2h-2.7v-1.5
	c0-1.6-0.4-2.8-1.9-2.8s-2.9,1.5-2.9,4.4C201.8,18,203.1,20.3,205.9,20.3z M225.5,19.9c0,0.8,0.1,1.5,0.8,1.5c0.4,0,0.8-0.1,1.2-0.2
	l0.2,1.4c-1.1,1-2.6,1.6-4.1,1.7c-1.5,0-2.9-1.1-3.3-2.5c-1,1.5-2.6,2.4-4.4,2.4c-2,0.2-3.8-1.3-4-3.4c0-0.2,0-0.4,0-0.6
	c0-2.5,1.8-3.4,3.8-4.1l4.5-1.6v-1.7c0-2.2-0.4-2.8-1.6-2.8s-1.4,0.7-1.4,1.7c0,0.7,0.1,1.3,0.2,1.9l-3.4,0.5
	c-0.8-0.3-1.3-1.1-1.2-2c0-2.7,2.6-3.9,6.2-3.9c4,0,6.3,1.3,6.3,6.1C225.5,14.5,225.5,19.7,225.5,19.9z M220.3,20.8v-4.6l-1.6,0.7
	c-0.9,0.3-1.5,1.2-1.4,2.1c0,1.3,0.6,2.2,1.8,2.2C219.5,21.2,219.9,21,220.3,20.8z M71.2,28.9h13c10.5,0,16.5,4.9,16.5,13.6
	c0,9.1-5.7,14.5-15.1,14.5H71.2v-2.8c2.7-0.1,3.2-0.6,3.2-2.7V34.4c0-2.1-0.5-2.6-3.2-2.7V28.9z M82.3,31.8v19.5
	c0,2.4,0.8,2.8,2.7,2.8h0.4c4.4,0,6.9-3.5,6.9-11.2c0-6.9-3.2-11.2-9.1-11.2H82.3z M122.3,51.1c0,1.2,0.2,2.1,1.2,2.1
	c0.6,0,1.1-0.1,1.7-0.2l0.4,2c-1.6,1.5-3.7,2.3-5.8,2.4c-2.2,0-4.1-1.5-4.7-3.6c-1.4,2.2-3.8,3.5-6.3,3.5c-2.9,0.2-5.4-1.9-5.7-4.8
	c0-0.3,0-0.5,0-0.8c0-3.5,2.6-4.8,5.4-5.8l6.4-2.2v-2.5c0-3.1-0.6-4-2.2-4c-1.4,0-2,1-2,2.5c0,0.9,0.1,1.9,0.4,2.8l-4.8,0.7
	c-1.1-0.4-1.8-1.6-1.7-2.8c0-3.9,3.7-5.6,8.9-5.6c5.7,0,9,1.8,9,8.7C122.3,43.5,122.3,50.9,122.3,51.1z M114.9,52.4v-6.6l-2.4,1
	c-1.3,0.4-2.2,1.6-2,3c0,1.9,0.9,3.2,2.5,3.2C113.7,53,114.3,52.8,114.9,52.4z M135.3,35h5.3v3h-5.3v12.3c0,1.9,0.8,2.8,2.5,2.8
	c1,0,2.1-0.3,3-0.8l0.8,2c-1.9,2-4.6,3.1-7.4,3c-4.3,0-6.4-2-6.4-6.4V38h-2.6v-2.2c2.7-0.9,5.8-3.4,7.9-5.9h2.4L135.3,35z
	 M162.8,51.1c0,1.2,0.2,2.1,1.2,2.1c0.6,0,1.1-0.1,1.7-0.2l0.4,2c-1.6,1.5-3.7,2.3-5.8,2.4c-2.2,0-4.1-1.5-4.7-3.6
	c-1.4,2.2-3.8,3.5-6.3,3.5c-2.9,0.2-5.4-2-5.6-4.9c0-0.3,0-0.5,0-0.8c0-3.5,2.6-4.8,5.4-5.8l6.4-2.2v-2.4c0-3.1-0.6-4-2.2-4
	c-1.4,0-2,1-2,2.5c0,0.9,0.1,1.9,0.4,2.8l-4.8,0.7c-1.1-0.4-1.8-1.6-1.7-2.8c0-3.9,3.7-5.6,8.9-5.6c5.7,0,9,1.8,9,8.7
	C162.8,43.5,162.8,50.9,162.8,51.1L162.8,51.1z M155.4,52.4v-6.6l-2.4,1c-1.3,0.4-2.2,1.6-2,3c0,1.9,0.9,3.2,2.5,3.2
	C154.2,53,154.8,52.8,155.4,52.4z M175.8,54.7l-0.4-6.7h4c1.1,4.5,3,6.6,6.7,6.6c2.4,0,4.2-1.1,4.2-3.5c0-2-1.2-3-5.6-4.1
	c-6.3-1.7-9.1-4.1-9.1-9.3c0-5.8,4.3-9.2,10.4-9.2c3.2-0.1,6.3,0.7,9,2.4V37h-3.4c-1.1-3.3-2.4-5.8-6.1-5.8c-2.6,0-3.9,1.5-3.9,3.3
	c0,2.4,1.5,3.2,5.6,4.3c6,1.5,9.4,3.8,9.4,9.5c0,6.3-4.9,9.1-11.1,9.1C182,57.5,178.7,56.5,175.8,54.7z M208,35h5.3v3H208v12.3
	c0,1.9,0.8,2.8,2.5,2.8c1,0,2.1-0.3,3-0.8l0.8,2c-1.9,2-4.6,3.1-7.4,3c-4.3,0-6.4-2-6.4-6.4V38h-2.6v-2.2c2.7-0.9,5.8-3.4,7.9-5.9
	h2.3V35z M214.8,46.4c0-7.2,5-11.8,11.8-11.8s11.2,4.8,11.2,11c0,7.2-5,11.8-11.8,11.8c-5.9,0.3-10.9-4.3-11.1-10.2
	C214.8,46.9,214.8,46.7,214.8,46.4z M229.9,47.2c0-5.6-1.5-9.8-4.1-9.8c-2.2,0-3.4,3.1-3.4,7.4c0,5.6,1.5,9.8,4.1,9.8
	C228.8,54.6,229.9,51.5,229.9,47.2z M249.4,41.4c1.6-5.4,3.3-6.8,6.1-6.8c0.6,0,1.3,0.1,1.8,0.5v6.3h-1c-2.5,0-5.1,0.2-6.9,1.4v9.3
	c0,1.8,0.9,1.9,3.2,2.2V57h-13.1v-2.7c1.8-0.2,2.4-0.4,2.4-2.3V40.4l-2.2-2.4v-1.4l8.4-2.2h1.4L249.4,41.4z M278.5,43.8v1.6h-13.1
	c0,3.9,2.6,6.4,6.1,6.4c2.2,0.1,4.4-0.9,5.8-2.7l1.3,0.9c-0.8,4.5-4.8,7.8-9.4,7.6c-6,0-10.4-4-10.4-10.7c0-7.3,5-12.1,11-12.1
	C275.5,34.6,278.5,38.8,278.5,43.8L278.5,43.8z M265.5,42.9h6.5c0-3.3-1-5.6-3-5.6C266.7,37.4,265.7,39.9,265.5,42.9z"/>
</svg>
